<svg id="Capa_1" enable-background="new 0 0 512 512" height="512" viewBox="0 0 512 512" width="512" xmlns="http://www.w3.org/2000/svg"><g><path d="m90 0c-4.61 0-20.39 0-25 0-24.813 0-45 20.187-45 45v90c0 8.284 6.716 15 15 15h85c8.284 0 15-6.716 15-15v-90c0-24.813-20.187-45-45-45z" fill="#8dc2eb"/><path d="m477 362h-85c-8.284 0-15 6.716-15 15v90c0 24.814 20.187 45 45 45h25c24.813 0 45-20.186 45-45v-90c0-8.284-6.716-15-15-15z" fill="#5e9ff6"/><path d="m422 512v-467c0-24.813-20.187-45-45-45h-287v467c0 24.814 20.187 45 45 45z" fill="#ecf9fd"/><path d="m256 512h166v-467c0-24.813-20.187-45-45-45h-121z" fill="#d9f3fc"/><path d="m241 151h-75c-8.284 0-15-6.716-15-15s6.716-15 15-15h75c8.284 0 15 6.716 15 15s-6.716 15-15 15z" fill="#4e6ba6"/><path d="m346 211h-180c-8.284 0-15-6.716-15-15s6.716-15 15-15h180c8.284 0 15 6.716 15 15s-6.716 15-15 15z" fill="#4e6ba6"/><path d="m346 211c8.284 0 15-6.716 15-15s-6.716-15-15-15h-90v30z" fill="#28487a"/><path d="m346 271h-180c-8.284 0-15-6.716-15-15s6.716-15 15-15h180c8.284 0 15 6.716 15 15s-6.716 15-15 15z" fill="#4e6ba6"/><path d="m346 271c8.284 0 15-6.716 15-15s-6.716-15-15-15h-90v30z" fill="#28487a"/><path d="m346 331h-180c-8.284 0-15-6.716-15-15s6.716-15 15-15h180c8.284 0 15 6.716 15 15s-6.716 15-15 15z" fill="#4e6ba6"/><path d="m346 331c8.284 0 15-6.716 15-15s-6.716-15-15-15h-90v30z" fill="#28487a"/><path d="m346 391h-180c-8.284 0-15-6.716-15-15s6.716-15 15-15h180c8.284 0 15 6.716 15 15s-6.716 15-15 15z" fill="#4e6ba6"/><path d="m346 391c8.284 0 15-6.716 15-15s-6.716-15-15-15h-90v30z" fill="#28487a"/></g></svg>