<svg id="Capa_1" enable-background="new 0 0 512 512" height="512" viewBox="0 0 512 512" width="512" xmlns="http://www.w3.org/2000/svg"><g><path d="m497 302h-174.691c-3.978 0-7.793 1.58-10.605 4.393l-149.397 149.367c-.64.506-1.247 1.07-1.814 1.693-14.193 15.6-34.419 24.547-55.493 24.547-8.284 0-15 6.716-15 15s6.716 15 15 15h392c8.283 0 15-6.716 15-15v-180c0-8.284-6.717-15-15-15z" fill="#4e6ba6"/><path d="m211.076 407-48.77 48.76c-.64.506-1.247 1.07-1.814 1.693-14.192 15.6-34.418 24.547-55.492 24.547-8.284 0-15 6.716-15 15s6.716 15 15 15h392c8.283 0 15-6.716 15-15v-90z" fill="#28487a"/><path d="m317 362h-60c-8.284 0-15 6.716-15 15v60c0 8.284 6.716 15 15 15h60c8.283 0 15-6.716 15-15v-60c0-8.284-6.717-15-15-15z" fill="#ecf9fd"/><path d="m242 407v30c0 8.284 6.716 15 15 15h60c8.283 0 15-6.716 15-15v-30z" fill="#d9f3fc"/><path d="m437 362h-60c-8.284 0-15 6.716-15 15v60c0 8.284 6.716 15 15 15h60c8.283 0 15-6.716 15-15v-60c0-8.284-6.717-15-15-15z" fill="#f37"/><path d="m362 407v30c0 8.284 6.716 15 15 15h60c8.283 0 15-6.716 15-15v-30z" fill="#cc295f"/><path d="m456.458 182.875-127.332-127.332c-2.814-2.814-6.629-4.395-10.608-4.395-3.978 0-7.793 1.581-10.605 4.395l-123.52 123.543c-2.813 2.813-4.393 6.628-4.393 10.605v217.309c0 20.002-7.777 38.809-21.9 52.967l-.045.045c-.002.002-.003.003-.003.003-5.857 5.86-5.855 15.357.003 21.212 2.928 2.929 6.767 4.393 10.605 4.393s7.677-1.464 10.605-4.393l277.191-277.139c2.814-2.813 4.395-6.628 4.395-10.607.001-3.978-1.579-7.793-4.393-10.606z" fill="#8dc2eb"/><path d="m456.458 182.875-63.666-63.666-212.792 212.791v75c0 20.002-7.777 38.809-21.9 52.967l-.045.045c-.002.002-.003.003-.003.003-5.857 5.86-5.855 15.357.003 21.212 2.928 2.929 6.767 4.393 10.605 4.393s7.677-1.464 10.605-4.393l277.191-277.139c2.814-2.813 4.395-6.628 4.395-10.607.001-3.978-1.579-7.793-4.393-10.606z" fill="#5e9ff6"/><path d="m371.579 182.847-42.426-42.426c-5.856-5.858-15.354-5.858-21.213 0l-42.427 42.426c-2.815 2.813-4.394 6.628-4.394 10.606s1.579 7.793 4.394 10.607l42.427 42.428c2.813 2.813 6.628 4.394 10.607 4.394 3.978 0 7.794-1.58 10.606-4.394l42.426-42.428c5.859-5.859 5.859-15.356 0-21.213z" fill="#ecf9fd"/><path d="m350.366 161.634-63.64 63.64 21.214 21.214c2.813 2.813 6.628 4.394 10.607 4.394 3.978 0 7.794-1.58 10.606-4.394l42.426-42.428c5.858-5.858 5.858-15.355 0-21.213z" fill="#d9f3fc"/><path d="m286.727 267.7-42.427-42.427c-2.813-2.814-6.628-4.394-10.606-4.394-3.979 0-7.795 1.58-10.607 4.394l-42.426 42.427c-5.858 5.858-5.858 15.355 0 21.213l42.426 42.426c2.929 2.93 6.768 4.393 10.607 4.393 3.838 0 7.678-1.465 10.606-4.393l42.427-42.426c2.813-2.813 4.393-6.628 4.393-10.606s-1.58-7.793-4.393-10.607z" fill="#4e6ba6"/><path d="m265.514 246.486-63.64 63.641 21.213 21.212c2.929 2.93 6.768 4.393 10.607 4.393 3.838 0 7.678-1.465 10.606-4.393l42.427-42.426c2.813-2.813 4.393-6.628 4.393-10.606s-1.58-7.793-4.393-10.606z" fill="#28487a"/><path d="m195 0h-180c-8.284 0-15 6.716-15 15v392c0 57.897 47.103 105 105 105s105-47.103 105-105v-392c0-8.284-6.717-15-15-15z" fill="#ecf9fd"/><path d="m195 0h-90v512c57.898 0 105-47.103 105-105v-392c0-8.284-6.717-15-15-15z" fill="#d9f3fc"/><path d="m135 60h-60c-8.284 0-15 6.716-15 15v60c0 8.284 6.716 15 15 15h60c8.283 0 15-6.716 15-15v-60c0-8.284-6.717-15-15-15z" fill="#f37"/><path d="m135 180h-60c-8.284 0-15 6.716-15 15v60c0 8.284 6.716 15 15 15h60c8.283 0 15-6.716 15-15v-60c0-8.284-6.717-15-15-15z" fill="#8dc2eb"/><path d="m135 180h-30v90h30c8.283 0 15-6.716 15-15v-60c0-8.284-6.717-15-15-15z" fill="#5e9ff6"/><path d="m135 60h-30v90h30c8.283 0 15-6.716 15-15v-60c0-8.284-6.717-15-15-15z" fill="#cc295f"/><circle cx="105" cy="407" fill="#8dc2eb" r="15"/><path d="m105 392v30c8.283 0 15-6.716 15-15s-6.717-15-15-15z" fill="#5e9ff6"/></g></svg>