<svg id="Capa_1" enable-background="new 0 0 512 512" height="512" viewBox="0 0 512 512" width="512" xmlns="http://www.w3.org/2000/svg"><g><path d="m497 90h-482c-8.284 0-15 6.716-15 15v392c0 8.284 6.716 15 15 15h482c8.284 0 15-6.716 15-15v-392c0-8.284-6.716-15-15-15z" fill="#ecf9fd"/><path d="m497 90h-241v422h241c8.284 0 15-6.716 15-15v-392c0-8.284-6.716-15-15-15z" fill="#d9f3fc"/><path d="m407 0h-392c-8.284 0-15 6.716-15 15v90h422v-90c0-8.284-6.716-15-15-15z" fill="#8dc2eb"/><path d="m407 0h-151v105h166v-90c0-8.284-6.716-15-15-15z" fill="#5e9ff6"/><path d="m497 0h-90v105h105v-90c0-8.284-6.716-15-15-15z" fill="#3d6def"/><path d="m447 462h-80c-8.284 0-15-6.716-15-15s6.716-15 15-15h80c8.284 0 15 6.716 15 15s-6.716 15-15 15z" fill="#28487a"/><path d="m447 402h-80c-8.284 0-15-6.716-15-15s6.716-15 15-15h80c8.284 0 15 6.716 15 15s-6.716 15-15 15z" fill="#28487a"/><path d="m447 342h-80c-8.284 0-15-6.716-15-15s6.716-15 15-15h80c8.284 0 15 6.716 15 15s-6.716 15-15 15z" fill="#28487a"/><g fill="#4e6ba6"><path d="m145.5 462h-80c-8.284 0-15-6.716-15-15s6.716-15 15-15h80c8.284 0 15 6.716 15 15s-6.716 15-15 15z"/><path d="m145.5 402h-80c-8.284 0-15-6.716-15-15s6.716-15 15-15h80c8.284 0 15 6.716 15 15s-6.716 15-15 15z"/><path d="m145.5 342h-80c-8.284 0-15-6.716-15-15s6.716-15 15-15h80c8.284 0 15 6.716 15 15s-6.716 15-15 15z"/><path d="m296 312h-80c-8.284 0-15-6.716-15-15s6.716-15 15-15h80c8.284 0 15 6.716 15 15s-6.716 15-15 15z"/></g><path d="m296 312c8.284 0 15-6.716 15-15s-6.716-15-15-15h-40v30z" fill="#28487a"/><path d="m296 252h-80c-8.284 0-15-6.716-15-15s6.716-15 15-15h80c8.284 0 15 6.716 15 15s-6.716 15-15 15z" fill="#4e6ba6"/><path d="m296 252c8.284 0 15-6.716 15-15s-6.716-15-15-15h-40v30z" fill="#28487a"/><path d="m296 192h-80c-8.284 0-15-6.716-15-15s6.716-15 15-15h80c8.284 0 15 6.716 15 15s-6.716 15-15 15z" fill="#4e6ba6"/><path d="m296 192c8.284 0 15-6.716 15-15s-6.716-15-15-15h-40v30z" fill="#28487a"/><path d="m146 160h-81c-8.284 0-15 6.716-15 15v90c0 8.284 6.716 15 15 15h81c8.284 0 15-6.716 15-15v-90c0-8.284-6.716-15-15-15z" fill="#f37"/><path d="m447 160h-80c-8.284 0-15 6.716-15 15v90c0 8.284 6.716 15 15 15h80c8.284 0 15-6.716 15-15v-90c0-8.284-6.716-15-15-15z" fill="#cc295f"/><path d="m296 342h-80c-8.284 0-15 6.716-15 15v90c0 8.284 6.716 15 15 15h80c8.284 0 15-6.716 15-15v-90c0-8.284-6.716-15-15-15z" fill="#f37"/><path d="m296 342h-40v120h40c8.284 0 15-6.716 15-15v-90c0-8.284-6.716-15-15-15z" fill="#cc295f"/></g></svg>